<?xml version="1.0" encoding="UTF-8" standalone="no"?><svg xmlns="http://www.w3.org/2000/svg" xmlns:xlink="http://www.w3.org/1999/xlink"><symbol id="calendar" version="1.1" xmlns:xlink="http://www.w3.org/1999/xlink" x="0px" y="0px" viewBox="0 0 24 24" style="enable-background:new 0 0 24 24;" xml:space="preserve"><path d="M9,11H7v2h2V11z M13,11h-2v2h2V11z M17,11h-2v2h2V11z M19,4h-1V2h-2v2H8V2H6v2H5C3.9,4,3,4.9,3,6l0,14c0,1.1,0.9,2,2,2h14
	c1.1,0,2-0.9,2-2V6C21,4.9,20.1,4,19,4z M19,20H5V9h14V20z"></path></symbol><symbol id="clients" version="1.1" xmlns:xlink="http://www.w3.org/1999/xlink" x="0px" y="0px" viewBox="0 0 24 24" style="enable-background:new 0 0 24 24;" xml:space="preserve"><path d="M16,11c1.7,0,3-1.3,3-3s-1.3-3-3-3s-3,1.3-3,3S14.3,11,16,11z M8,11c1.7,0,3-1.3,3-3S9.7,5,8,5S5,6.3,5,8S6.3,11,8,11z
	 M8,13c-2.3,0-7,1.2-7,3.5V19h14v-2.5C15,14.2,10.3,13,8,13z M16,13c-0.3,0-0.6,0-1,0.1c1.2,0.8,2,2,2,3.4V19h6v-2.5
	C23,14.2,18.3,13,16,13z"></path></symbol><symbol id="filter" data-name="Layer 1" viewBox="0 0 18 18"><title>filter</title><path d="M3,17v2H9V17ZM3,5V7H13V5ZM13,21V19h8V17H13V15H11v6ZM7,9v2H3v2H7v2H9V9Zm14,4V11H11v2ZM15,9h2V7h4V5H17V3H15Z" transform="translate(-3 -3)"></path></symbol><symbol id="search" version="1.1" xmlns:xlink="http://www.w3.org/1999/xlink" x="0px" y="0px" viewBox="0 0 24 24" style="enable-background:new 0 0 24 24;" xml:space="preserve"><path d="M15.5,14h-0.8l-0.3-0.3c1-1.1,1.6-2.6,1.6-4.2C16,5.9,13.1,3,9.5,3S3,5.9,3,9.5S5.9,16,9.5,16c1.6,0,3.1-0.6,4.2-1.6
	l0.3,0.3v0.8l5,5l1.5-1.5L15.5,14z M9.5,14C7,14,5,12,5,9.5S7,5,9.5,5S14,7,14,9.5S12,14,9.5,14z"></path></symbol><symbol id="logo" version="1.1" xmlns:xlink="http://www.w3.org/1999/xlink" x="0px" y="0px" viewBox="0 0 928.9 175" style="enable-background:new 0 0 928.9 175;" xml:space="preserve"><style type="text/css"><![CDATA[.st0{fill:#F7901E;}.st1{fill:#FFFFFF;}]]></style><g><path class="st0" d="M90.5,70.8h35.7v51.5c-7.2,5-15.6,8.8-25.1,11.5c-9.5,2.7-18.9,4-28,4c-13,0-24.7-2.7-35-8.1
		c-10.3-5.4-18.4-12.9-24.3-22.6C8,97.4,5,86.4,5,74.1c0-12.3,2.9-23.3,8.8-33c5.9-9.7,14-17.2,24.5-22.6
		c10.5-5.4,22.4-8.1,35.6-8.1c11.9,0,22.7,2,32.1,6c9.5,4,17.3,9.8,23.6,17.5L103.4,57c-7.7-8.9-16.8-13.4-27.3-13.4
		c-9.1,0-16.2,2.7-21.6,8.2c-5.3,5.5-8,12.9-8,22.3c0,9.2,2.6,16.5,7.9,22.1c5.3,5.6,12.3,8.4,21.1,8.4c5.2,0,10.2-1,15-3V70.8z
		 M164.4,130.4c-8.4-4.2-15-10.1-19.8-17.6c-4.8-7.5-7.1-16-7.1-25.5c0-9.5,2.4-18,7.1-25.5c4.8-7.5,11.3-13.3,19.8-17.5
		c8.4-4.2,17.9-6.3,28.5-6.3c10.7,0,20.2,2.1,28.6,6.3c8.4,4.2,15,10,19.7,17.5c4.7,7.5,7,16,7,25.5c0,9.5-2.4,18-7,25.5
		c-4.7,7.5-11.3,13.3-19.7,17.6c-8.4,4.2-18,6.4-28.6,6.4C182.3,136.7,172.8,134.6,164.4,130.4z M204,101.2
		c2.9-3.3,4.4-7.9,4.4-13.8s-1.5-10.5-4.4-13.8c-2.9-3.2-6.6-4.9-11.1-4.9s-8.2,1.6-11.1,4.9c-2.9,3.2-4.4,7.8-4.4,13.8
		s1.4,10.5,4.4,13.8c2.9,3.3,6.6,5,11.1,5S201.1,104.5,204,101.2z M282.4,130.4c-8.4-4.2-15-10.1-19.8-17.6
		c-4.8-7.5-7.1-16-7.1-25.5c0-9.5,2.4-18,7.1-25.5c4.8-7.5,11.3-13.3,19.8-17.5c8.4-4.2,17.9-6.3,28.5-6.3c10.7,0,20.2,2.1,28.6,6.3
		c8.4,4.2,15,10,19.7,17.5c4.7,7.5,7,16,7,25.5c0,9.5-2.4,18-7,25.5c-4.7,7.5-11.3,13.3-19.7,17.6c-8.4,4.2-18,6.4-28.6,6.4
		C300.3,136.7,290.8,134.6,282.4,130.4z M322,101.2c2.9-3.3,4.4-7.9,4.4-13.8s-1.5-10.5-4.4-13.8c-2.9-3.2-6.6-4.9-11.1-4.9
		s-8.2,1.6-11.1,4.9c-2.9,3.2-4.4,7.8-4.4,13.8s1.4,10.5,4.4,13.8c2.9,3.3,6.6,5,11.1,5S319.1,104.5,322,101.2z M483.9,5.9V135
		h-37.4v-7.8c-5.7,6.4-14.4,9.6-26.1,9.6c-8.4,0-16-2-23.1-6c-7-4-12.6-9.8-16.7-17.3c-4.1-7.5-6.2-16.2-6.2-26.1
		c0-9.9,2.1-18.5,6.2-26c4.1-7.5,9.7-13.2,16.7-17.2c7-4,14.7-6,23.1-6c10.6,0,18.6,2.7,24.2,8.2V5.9H483.9z M440.9,101.2
		c2.9-3.3,4.4-7.9,4.4-13.8s-1.5-10.5-4.4-13.8c-2.9-3.2-6.6-4.9-11.1-4.9s-8.2,1.6-11.1,4.9c-2.9,3.2-4.4,7.8-4.4,13.8
		s1.4,10.5,4.4,13.8c2.9,3.3,6.6,5,11.1,5S438,104.5,440.9,101.2z"></path><path class="st1" d="M583.1,70.8h35.7v51.5c-7.2,5-15.6,8.8-25.1,11.5c-9.5,2.7-18.9,4-28,4c-13,0-24.7-2.7-35-8.1
		c-10.3-5.4-18.4-12.9-24.3-22.6c-5.9-9.7-8.8-20.7-8.8-33c0-12.3,2.9-23.3,8.8-33c5.9-9.7,14-17.2,24.5-22.6
		c10.5-5.4,22.4-8.1,35.6-8.1c11.9,0,22.7,2,32.1,6c9.5,4,17.3,9.8,23.6,17.5L596,57c-7.7-8.9-16.8-13.4-27.3-13.4
		c-9.1,0-16.2,2.7-21.6,8.2c-5.3,5.5-8,12.9-8,22.3c0,9.2,2.6,16.5,7.9,22.1c5.3,5.6,12.3,8.4,21.1,8.4c5.2,0,10.2-1,15-3V70.8z
		 M741.1,39.8L702,136.9c-5,12.4-11.2,21.1-18.6,26.1c-7.4,5-16.5,7.5-27.3,7.5c-5.3,0-10.7-0.8-16.1-2.3s-9.7-3.6-12.8-6.2l13.1-27
		c2,1.5,4.2,2.7,6.7,3.7c2.5,0.9,4.9,1.4,7.2,1.4c4.3,0,7.5-1.3,9.7-3.8l-40-96.4h40.4l19.7,51l20-51H741.1z M910.2,48.7
		c6.9,7.1,10.4,17.8,10.4,32V135h-39.3V87.5c0-10.9-3.5-16.4-10.6-16.4c-3.7,0-6.7,1.4-9,4.2s-3.4,7.2-3.4,13.2V135h-39.3V87.5
		c0-10.9-3.5-16.4-10.6-16.4c-3.7,0-6.7,1.4-9,4.2s-3.4,7.2-3.4,13.2V135h-39.3V39.8H794v8.9c7.1-7.1,16.1-10.6,27-10.6
		c6.4,0,12.1,1.2,17.2,3.6c5.1,2.4,9.3,6,12.5,10.9c3.8-4.6,8.5-8.2,13.9-10.7c5.5-2.5,11.4-3.7,17.9-3.7
		C894.1,38.1,903.3,41.6,910.2,48.7z"></path></g></symbol><symbol id="logout" version="1.1" xmlns:xlink="http://www.w3.org/1999/xlink" x="0px" y="0px" viewBox="0 0 490 490" style="enable-background:new 0 0 490 490;" xml:space="preserve"><path d="M490,245c0,8.8-7.2,16-16,16H203.7l57.9,57.9c6.2,6.2,6.2,16.4,0,22.6c-3.1,3.1-7.2,4.7-11.3,4.7c-4.1,0-8.2-1.6-11.3-4.7
	l-85.1-85.1c-1.2-1.2-2.2-2.5-3-4c0,0,0,0,0,0c-0.2-0.4-0.4-0.9-0.6-1.4c0,0,0,0,0,0c-0.8-1.9-1.2-3.9-1.2-6c0-1,0.1-2,0.3-3
	c0,0,0-0.1,0-0.1c0.1-0.4,0.2-0.8,0.3-1.2c0-0.1,0.1-0.3,0.1-0.4c0.1-0.3,0.2-0.6,0.3-0.9c0.1-0.2,0.1-0.4,0.2-0.6
	c0.1-0.2,0.2-0.5,0.3-0.7c0.1-0.2,0.2-0.5,0.3-0.7c0.1-0.2,0.2-0.3,0.3-0.5c0.2-0.3,0.3-0.6,0.5-0.8c0.1-0.1,0.2-0.2,0.2-0.3
	c0.5-0.7,1.1-1.4,1.8-2.1l85.2-85.2c6.2-6.2,16.4-6.2,22.6,0c6.2,6.2,6.2,16.4,0,22.6L203.7,229H474C482.8,229,490,236.2,490,245z
	 M443.5,310c-8.2-3.2-17.5,0.8-20.7,9C392,397,318.1,447.4,234.3,447.4C122.8,447.4,32,356.6,32,245S122.8,42.6,234.3,42.6
	C318.1,42.6,392,93,422.7,171c3.3,8.2,12.5,12.2,20.7,9c8.2-3.3,12.2-12.5,9-20.7C416.9,69,331.3,10.7,234.3,10.7
	C105.1,10.7,0,115.8,0,245s105.1,234.3,234.3,234.3c97,0,182.6-58.3,218.1-148.6C455.7,322.5,451.7,313.3,443.5,310z"></path></symbol><symbol id="subscriptions" data-name="Layer 1" viewBox="0 0 18 20"><title>subscriptions</title><path d="M19,3H14.82A3,3,0,0,0,9.18,3H5A2,2,0,0,0,3,5V19a2,2,0,0,0,2,2H19a2,2,0,0,0,2-2V5A2,2,0,0,0,19,3ZM12,3a1,1,0,1,1-1,1A1,1,0,0,1,12,3Zm2,14H7V15h7Zm3-4H7V11H17Zm0-4H7V7H17Z" transform="translate(-3 -1)"></path></symbol></svg>