<?xml version="1.0" encoding="UTF-8" standalone="no"?><svg xmlns="http://www.w3.org/2000/svg" xmlns:xlink="http://www.w3.org/1999/xlink"><symbol id="calendar" viewBox="0 0 24 24"><path d="M9,11H7v2h2V11z M13,11h-2v2h2V11z M17,11h-2v2h2V11z M19,4h-1V2h-2v2H8V2H6v2H5C3.9,4,3,4.9,3,6l0,14c0,1.1,0.9,2,2,2h14
	c1.1,0,2-0.9,2-2V6C21,4.9,20.1,4,19,4z M19,20H5V9h14V20z"></path></symbol><symbol id="clients" viewBox="0 0 24 24"><path d="M16,11c1.7,0,3-1.3,3-3s-1.3-3-3-3s-3,1.3-3,3S14.3,11,16,11z M8,11c1.7,0,3-1.3,3-3S9.7,5,8,5S5,6.3,5,8S6.3,11,8,11z
	 M8,13c-2.3,0-7,1.2-7,3.5V19h14v-2.5C15,14.2,10.3,13,8,13z M16,13c-0.3,0-0.6,0-1,0.1c1.2,0.8,2,2,2,3.4V19h6v-2.5
	C23,14.2,18.3,13,16,13z"></path></symbol><symbol id="email" viewBox="0 0 48 48"><path d="M42,8H6c-1.1,0-2,0.9-2,2v28c0,1.1,0.9,2,2,2h36c1.1,0,2-0.9,2-2V10C44,8.9,43.1,8,42,8z M41.5,10L24,25.7L6.5,10H41.5z
	 M6,38V12.2l18,16.1l18-16.1V38H6z"></path></symbol><symbol id="error" viewBox="0 0 24 24"><path d="M11,15h2v2h-2V15z M11,7h2v6h-2V7z M12,2C6.5,2,2,6.5,2,12s4.5,10,10,10c5.5,0,10-4.5,10-10S17.5,2,12,2z M12,20
	c-4.4,0-8-3.6-8-8s3.6-8,8-8s8,3.6,8,8S16.4,20,12,20z"></path></symbol><symbol id="eye" viewBox="0 0 24 24"><path d="M12,6c3.8,0,7.2,2.1,8.8,5.5c-1.6,3.4-5,5.5-8.8,5.5s-7.2-2.1-8.8-5.5C4.8,8.1,8.2,6,12,6 M12,4C7,4,2.7,7.1,1,11.5
	C2.7,15.9,7,19,12,19s9.3-3.1,11-7.5C21.3,7.1,17,4,12,4z M12,9c1.4,0,2.5,1.1,2.5,2.5S13.4,14,12,14s-2.5-1.1-2.5-2.5S10.6,9,12,9
	 M12,7c-2.5,0-4.5,2-4.5,4.5S9.5,16,12,16s4.5-2,4.5-4.5S14.5,7,12,7z"></path></symbol><symbol id="filter" viewBox="0 0 18 18"><path d="M3,17v2H9V17ZM3,5V7H13V5ZM13,21V19h8V17H13V15H11v6ZM7,9v2H3v2H7v2H9V9Zm14,4V11H11v2ZM15,9h2V7h4V5H17V3H15Z" transform="translate(-3 -3)"></path></symbol><symbol id="good" viewBox="0 0 217.3 46.2"><path d="M155.8,29.5c2.4,3.8,3.6,8.2,3.6,13.1c0,1.3-0.1,2.5-0.2,3.7h-20.7c0.3-1.1,0.5-2.3,0.5-3.7c0-3-0.7-5.4-2.2-7.1
	c-1.5-1.7-3.4-2.5-5.7-2.5s-4.2,0.8-5.7,2.5c-1.5,1.7-2.2,4-2.2,7.1c0,1.4,0.2,2.6,0.5,3.7h-20.7c-0.2-1.2-0.2-2.4-0.2-3.7
	c0-4.9,1.2-9.3,3.7-13.1c2.4-3.8,5.8-6.8,10.1-9c4.3-2.1,9.2-3.2,14.6-3.2c5.5,0,10.4,1.1,14.7,3.2C150,22.6,153.3,25.6,155.8,29.5z
	 M199.6,0.7v20.7c-2.9-2.8-7-4.2-12.4-4.2c-4.3,0-8.2,1-11.8,3.1c-3.6,2.1-6.5,5-8.6,8.8c-2.1,3.8-3.2,8.3-3.2,13.4
	c0,1.3,0.1,2.5,0.2,3.7h20.7c-0.3-1.1-0.5-2.3-0.5-3.7c0-3,0.7-5.4,2.2-7.1c1.5-1.7,3.4-2.5,5.7-2.5s4.2,0.8,5.7,2.5
	c1.5,1.7,2.2,4,2.2,7.1c0,1.4-0.2,2.6-0.5,3.7h17.8V0.7H199.6z M25.8,6.1C20.9,4.1,15.4,3.1,9.3,3.1C6,3.1,2.9,3.4,0,4v19.7
	c2.6-2.4,6.1-3.6,10.4-3.6c5.4,0,10.1,2.3,14,6.9l13.5-11.9C34.7,11.2,30.6,8.2,25.8,6.1z M85.1,20.5c-4.3-2.1-9.2-3.2-14.7-3.2
	c-5.4,0-10.3,1.1-14.6,3.2c-4.3,2.1-7.7,5.1-10.1,9c-2.4,3.8-3.7,8.2-3.7,13.1c0,1.3,0.1,2.5,0.2,3.7h20.7c-0.3-1.1-0.5-2.3-0.5-3.7
	c0-3,0.7-5.4,2.2-7.1c1.5-1.7,3.4-2.5,5.7-2.5s4.2,0.8,5.7,2.5c1.5,1.7,2.2,4,2.2,7.1c0,1.4-0.2,2.6-0.5,3.7h20.7
	c0.2-1.2,0.2-2.4,0.2-3.7c0-4.9-1.2-9.3-3.6-13.1C92.7,25.6,89.4,22.6,85.1,20.5z M17.8,46.2h18.3V34.1H17.8V46.2z"></path></symbol><symbol id="gym" viewBox="0 0 381.4 162"><path d="M17,42.4c-5.3,5.5-7.9,13.3-7.9,23.3s2.4,17.5,7.2,22.5s11,7.5,18.7,7.5c7.1,0,13.1-1.7,18.1-5.2V61.3h35.7v64.2H62V118
	c-8.1,6.9-19,10.3-32.7,10.3c-10.7,0-20.5-2.1-29.3-6.3V9.6c0.3-0.1,0.6-0.3,0.9-0.5c10.5-5.5,22.4-8.2,35.7-8.2
	c11.9,0,22.6,2,32.1,6S86,16.8,92.3,24.3L66,47.4C58.4,38.5,49.3,34,38.7,34C29.5,34,22.3,36.8,17,42.4z M169,68.2
	c0,6.6-1.3,11.5-3.8,14.5c-2.6,3.1-5.7,4.6-9.6,4.6c-4.1,0-7.1-1.4-9.2-4.2c-2.1-2.8-3.1-7.4-3.1-13.9V30.4H104V76
	c0,14.9,3.7,26,11,33.3c7.3,7.4,17,11.1,29.1,11.1c9.9,0,18.2-3,25.1-9.1v0.7c-0.2,6.5-1.9,11.4-5.5,14.8c-3.5,3.4-9.2,5-17,5
	c-5.1,0-10.5-0.9-16.1-2.6c-5.6-1.7-10.3-4-14-6.8l-13.2,26.8c5.8,3.8,12.8,6.8,21,8.8c8.2,2,17,3,26.4,3c18.3,0,32.5-4.6,42.6-13.7
	c10-9.1,15.1-22.7,15.1-40.8V30.4H169V68.2z M378.5,39.2c-6.9-7.1-16.1-10.6-27.6-10.6c-6.5,0-12.5,1.2-17.9,3.7
	c-5.5,2.5-10.1,6.1-13.9,10.7c-3.2-4.9-7.4-8.5-12.5-10.9c-5.1-2.4-10.9-3.6-17.2-3.6c-10.9,0-19.9,3.5-27,10.6v-8.7H225v95h39.3
	V79.1c0-6,1.1-10.4,3.4-13.2c2.3-2.8,5.2-4.2,9-4.2c7.1,0,10.6,5.5,10.6,16.4v47.5h39.3V79.1c0-6,1.1-10.4,3.4-13.2
	c2.3-2.8,5.2-4.2,9-4.2c7.1,0,10.6,5.5,10.6,16.4v47.5h31.8v-83C380.5,41.4,379.6,40.2,378.5,39.2z"></path></symbol><symbol id="instagram" viewBox="0 0 555.1 555.1"><linearGradient id="SVGID_1_" x1="119.9594" y1="546.9883" x2="431.0061" y2="8.2397"><stop offset="0" style="stop-color:#FECC5E"></stop><stop offset="0.3" style="stop-color:#EF7638"></stop><stop offset="0.6" style="stop-color:#D62F84"></stop><stop offset="1" style="stop-color:#9838DC"></stop></linearGradient><path fill="url(#SVGID_1_)" d="M534.5,98c-6.9-18.3-17.6-34.7-31.5-48.3c-13.6-13.8-30.1-24.6-48.2-31.4C437.4,11.7,417.6,7,388.7,5.7
		C359.5,4.3,350.3,4,276.4,4s-83.2,0.3-112.2,1.6c-28.9,1.3-48.8,6-66.1,12.7c-18.3,6.9-34.7,17.6-48.3,31.5
		C35.9,63.4,25.2,79.9,18.4,97.9C11.7,115.3,7,135.1,5.7,164C4.3,193.2,4,202.4,4,276.4s0.3,83.2,1.6,112.2
		c1.3,28.9,6,48.8,12.7,66.1c6.9,18.3,17.7,34.7,31.5,48.3c13.6,13.8,30.1,24.6,48.2,31.4c17.3,6.7,37.1,11.4,66.1,12.7
		c29,1.3,38.3,1.6,112.2,1.6s83.2-0.3,112.2-1.6c28.9-1.3,48.8-6,66.1-12.7c36.6-14.2,65.5-43.1,79.7-79.7
		c6.7-17.3,11.4-37.1,12.7-66.1c1.3-29,1.6-38.3,1.6-112.2s-0.1-83.2-1.4-112.2C545.8,135.2,541.2,115.3,534.5,98z M498.1,386.5
		c-1.2,26.6-5.6,41-9.4,50.5c-9.2,23.7-28,42.6-51.7,51.7c-9.6,3.7-24,8.2-50.5,9.4c-28.7,1.3-37.3,1.6-110,1.6s-81.4-0.3-110-1.6
		c-26.6-1.2-41-5.6-50.5-9.4c-11.8-4.4-22.6-11.3-31.3-20.3c-9-8.8-16-19.5-20.3-31.3c-3.7-9.6-8.2-24-9.4-50.5
		c-1.3-28.7-1.6-37.3-1.6-110s0.3-81.4,1.6-110c1.2-26.6,5.6-41,9.4-50.5c4.4-11.8,11.3-22.6,20.4-31.3c8.8-9,19.5-16,31.3-20.3
		c7.3-2.8,17.4-6.1,33.4-8c2.4-0.3,4.8-0.6,7.3-0.7c3.1-0.3,6.4-0.5,9.8-0.6c28.7-1.3,37.3-1.6,110-1.6c72.8,0,81.4,0.3,110,1.6
		c26.6,1.2,41,5.6,50.5,9.4c11.8,4.4,22.6,11.3,31.3,20.3c9,8.8,16,19.5,20.3,31.3c3.7,9.6,8.2,24,9.4,50.5
		c1.3,28.7,1.6,37.3,1.6,110S499.3,357.7,498.1,386.5z"></path><linearGradient id="SVGID_2_" x1="86.2428" y1="466.4655" x2="464.6083" y2="88.1001"><stop offset="0" style="stop-color:#EFB10C"></stop><stop offset="0.6474" style="stop-color:#CA328C"></stop><stop offset="0.9951" style="stop-color:#CA328C"></stop></linearGradient><path fill="url(#SVGID_2_)" d="M276.4,136.5c-77.2,0-139.9,62.7-139.9,139.9s62.7,139.9,139.9,139.9c77.2,0,139.9-62.7,139.9-139.9
		S353.6,136.5,276.4,136.5z M276.4,367.1c-50.1,0-90.8-40.6-90.8-90.7c0-50.1,40.6-90.8,90.8-90.8c50.1,0,90.7,40.6,90.7,90.8
		C367.1,326.5,326.5,367.1,276.4,367.1z"></path><linearGradient id="SVGID_3_" x1="420.7877" y1="528.1635" x2="420.7877" y2="6.7935"><stop offset="0" style="stop-color:#C23099"></stop><stop offset="1" style="stop-color:#B433A6"></stop></linearGradient><path fill="url(#SVGID_3_)" d="M453.5,130.9c0,18-14.6,32.7-32.7,32.7c-18,0-32.7-14.6-32.7-32.7c0-18,14.6-32.7,32.7-32.7
		C438.8,98.3,453.5,112.9,453.5,130.9z"></path></symbol><symbol id="logo" viewBox="0 0 926 172.3"><path fill="#FF9100" d="M54.6,49.9c-5.3,5.6-7.9,13.3-7.9,23.3c0,10,2.4,17.5,7.2,22.5c4.8,5,11.1,7.5,18.7,7.5
		c7.1,0,13.1-1.7,18.1-5.2V68.7h35.7V133H99.6v-7.5c-8.1,6.8-19,10.3-32.7,10.3c-11.5,0-21.9-2.4-31.2-7.3
		c-9.3-4.9-16.7-12-22.2-21.3C8,97.8,5.2,86.6,5.2,73.6c0-12.8,2.9-24.1,8.8-34c5.9-9.9,14-17.6,24.5-23.1
		c10.4-5.5,22.3-8.2,35.7-8.2c11.9,0,22.7,2,32.1,6c9.5,4,17.3,9.8,23.6,17.5L103.6,55c-7.7-8.9-16.8-13.4-27.3-13.4
		C67.1,41.6,59.9,44.4,54.6,49.9z M241.3,59.8c4.7,7.5,7,16,7,25.5c0,9.5-2.4,18-7,25.5c-4.7,7.5-11.3,13.3-19.7,17.6
		c-8.4,4.2-18,6.4-28.6,6.4c-10.6,0-20-2.1-28.5-6.4c-8.4-4.2-15-10.1-19.8-17.6c-4.8-7.5-7.1-16-7.1-25.5c0-9.5,2.4-18,7.1-25.5
		c4.8-7.5,11.3-13.3,19.8-17.5C173,38.1,182.5,36,193,36c10.7,0,20.2,2.1,28.6,6.3C230.1,46.5,236.6,52.3,241.3,59.8z M208.5,85.3
		c0-5.9-1.5-10.5-4.4-13.8c-2.9-3.2-6.6-4.9-11.1-4.9s-8.2,1.6-11.1,4.9c-2.9,3.2-4.4,7.8-4.4,13.8s1.4,10.5,4.4,13.8
		c2.9,3.3,6.6,5,11.1,5s8.2-1.7,11.1-5C207.1,95.8,208.5,91.2,208.5,85.3z M359.4,59.8c4.7,7.5,7,16,7,25.5c0,9.5-2.3,18-7,25.5
		s-11.3,13.3-19.7,17.6c-8.4,4.2-18,6.4-28.6,6.4c-10.6,0-20-2.1-28.5-6.4c-8.4-4.2-15-10.1-19.8-17.6c-4.8-7.5-7.1-16-7.1-25.5
		c0-9.5,2.4-18,7.1-25.5c4.8-7.5,11.3-13.3,19.8-17.5c8.4-4.2,17.9-6.3,28.5-6.3c10.7,0,20.2,2.1,28.6,6.3
		C348.1,46.5,354.7,52.3,359.4,59.8z M326.5,85.3c0-5.9-1.5-10.5-4.4-13.8c-2.9-3.2-6.6-4.9-11.1-4.9s-8.2,1.6-11.1,4.9
		c-2.9,3.2-4.3,7.8-4.3,13.8s1.4,10.5,4.3,13.8c2.9,3.3,6.6,5,11.1,5s8.2-1.7,11.1-5C325.1,95.8,326.5,91.2,326.5,85.3z M484.1,3.8
		V133h-37.4v-7.8c-5.7,6.4-14.4,9.6-26.1,9.6c-8.4,0-16-2-23.1-6c-7-4-12.6-9.8-16.7-17.3c-4.1-7.5-6.2-16.2-6.2-26.1
		c0-9.9,2.1-18.5,6.2-26c4.1-7.5,9.7-13.2,16.7-17.2c7-4,14.7-6,23.1-6c10.6,0,18.6,2.7,24.2,8.2V3.8H484.1z M445.4,85.3
		c0-5.9-1.5-10.5-4.4-13.8c-2.9-3.2-6.6-4.9-11.1-4.9s-8.2,1.6-11.1,4.9c-2.9,3.2-4.4,7.8-4.4,13.8s1.4,10.5,4.4,13.8
		c2.9,3.3,6.6,5,11.1,5s8.2-1.7,11.1-5C444,95.8,445.4,91.2,445.4,85.3z"></path><path fill="#FFFFFF" d="M547.2,49.9c-5.3,5.6-7.9,13.3-7.9,23.3c0,10,2.4,17.5,7.2,22.5c4.8,5,11.1,7.5,18.7,7.5
		c7.1,0,13.1-1.7,18.1-5.2V68.7h35.7V133h-26.8v-7.5c-8.1,6.8-19,10.3-32.7,10.3c-11.5,0-21.9-2.4-31.2-7.3
		c-9.3-4.9-16.7-12-22.2-21.3c-5.5-9.3-8.2-20.5-8.2-33.5c0-12.8,2.9-24.1,8.8-34c5.9-9.9,14-17.6,24.5-23.1
		c10.4-5.5,22.3-8.2,35.7-8.2c11.9,0,22.7,2,32.1,6c9.5,4,17.3,9.8,23.6,17.5L596.1,55c-7.7-8.9-16.8-13.4-27.3-13.4
		C559.7,41.6,552.4,44.4,547.2,49.9z M700.1,75.5c0,6.6-1.3,11.5-3.8,14.5c-2.6,3.1-5.7,4.6-9.6,4.6c-4.1,0-7.1-1.4-9.2-4.2
		s-3.1-7.4-3.1-13.9V37.8H635v45.6c0,14.9,3.7,26,11,33.3c7.3,7.4,17,11.1,29.1,11.1c9.9,0,18.2-3,25.1-9.1v0.7
		c0,6.5-1.8,11.4-5.3,14.8c-3.5,3.4-9.2,5-17,5c-5.1,0-10.5-0.9-16.1-2.6c-5.6-1.7-10.3-4-14-6.8l-13.2,26.8
		c5.8,3.8,12.8,6.8,21,8.8c8.2,2,17,3,26.4,3c18.3,0,32.5-4.6,42.6-13.7c10-9.1,15.1-22.7,15.1-40.8V37.8h-39.3V75.5z M910.4,46.6
		c-6.9-7.1-16.1-10.6-27.6-10.6c-6.5,0-12.5,1.2-17.9,3.7c-5.5,2.5-10.1,6.1-13.9,10.7c-3.2-4.9-7.4-8.5-12.5-10.9
		c-5.1-2.4-10.9-3.6-17.2-3.6c-10.9,0-19.9,3.5-27,10.6v-8.9h-37.4V133h39.3V86.5c0-6,1.1-10.4,3.4-13.2s5.2-4.2,9-4.2
		c7.1,0,10.6,5.5,10.6,16.4V133h39.3V86.5c0-6,1.1-10.4,3.4-13.2s5.2-4.2,9-4.2c7.1,0,10.6,5.5,10.6,16.4V133h39.3V78.7
		C920.8,64.4,917.3,53.7,910.4,46.6z"></path></symbol><symbol id="logout" viewBox="0 0 490 490"><path d="M490,245c0,8.8-7.2,16-16,16H203.7l57.9,57.9c6.2,6.2,6.2,16.4,0,22.6c-3.1,3.1-7.2,4.7-11.3,4.7c-4.1,0-8.2-1.6-11.3-4.7
	l-85.1-85.1c-1.2-1.2-2.2-2.5-3-4c0,0,0,0,0,0c-0.2-0.4-0.4-0.9-0.6-1.4c0,0,0,0,0,0c-0.8-1.9-1.2-3.9-1.2-6c0-1,0.1-2,0.3-3
	c0,0,0-0.1,0-0.1c0.1-0.4,0.2-0.8,0.3-1.2c0-0.1,0.1-0.3,0.1-0.4c0.1-0.3,0.2-0.6,0.3-0.9c0.1-0.2,0.1-0.4,0.2-0.6
	c0.1-0.2,0.2-0.5,0.3-0.7c0.1-0.2,0.2-0.5,0.3-0.7c0.1-0.2,0.2-0.3,0.3-0.5c0.2-0.3,0.3-0.6,0.5-0.8c0.1-0.1,0.2-0.2,0.2-0.3
	c0.5-0.7,1.1-1.4,1.8-2.1l85.2-85.2c6.2-6.2,16.4-6.2,22.6,0c6.2,6.2,6.2,16.4,0,22.6L203.7,229H474C482.8,229,490,236.2,490,245z
	 M443.5,310c-8.2-3.2-17.5,0.8-20.7,9C392,397,318.1,447.4,234.3,447.4C122.8,447.4,32,356.6,32,245S122.8,42.6,234.3,42.6
	C318.1,42.6,392,93,422.7,171c3.3,8.2,12.5,12.2,20.7,9c8.2-3.3,12.2-12.5,9-20.7C416.9,69,331.3,10.7,234.3,10.7
	C105.1,10.7,0,115.8,0,245s105.1,234.3,234.3,234.3c97,0,182.6-58.3,218.1-148.6C455.7,322.5,451.7,313.3,443.5,310z"></path></symbol><symbol id="pentagon" viewBox="0 0 88 88"><path d="M83.3,29.1l-8.1,44c-0.2,1.3-1.2,2.2-2.5,2.4l-45,7c-1.3,0.2-2.6-0.5-3.1-1.6L4.9,41.3c-0.6-1.2-0.3-2.6,0.6-3.5L38.4,6.2
	c0.9-0.9,2.3-1.1,3.4-0.5l39.9,20.2C82.9,26.5,83.6,27.8,83.3,29.1z"></path></symbol><symbol id="phone" viewBox="0 0 48 48"><path d="M14.5,7c0.1,0,0.1,0.1,0.1,0.1c0,2.8,0.4,5.5,1.3,8.1c0,0.1,0,0.1,0,0.1l-2.8,2.8l-1,1l0.6,1.3C15.7,27,21,32.3,27.5,35.3
	l1.3,0.6l1-1l2.8-2.8c0,0,0.1-0.1,0.1-0.1l0,0c2.6,0.9,5.4,1.3,8.2,1.3c0.1,0,0.1,0.1,0.1,0.1v7.4c0,0.1-0.1,0.1-0.1,0.1
	C22.2,41,7,25.8,7,7.1C7,7.1,7.1,7,7.1,7L14.5,7 M14.5,5H7.1C6,5,5,5.9,5,7.1C5,26.9,21.1,43,40.9,43c1.2,0,2.1-1,2.1-2.1v-7.4
	c0-1.2-1-2.1-2.1-2.1c-2.6,0-5.2-0.4-7.5-1.2c-0.2-0.1-0.4-0.1-0.7-0.1c-0.5,0-1.1,0.2-1.5,0.6l-2.8,2.8c-6.1-2.9-11-7.8-13.9-13.9
	l2.8-2.8c0.6-0.6,0.8-1.4,0.5-2.2c-0.8-2.4-1.2-4.9-1.2-7.5C16.6,5.9,15.7,5,14.5,5L14.5,5z"></path></symbol><symbol id="pin" viewBox="0 0 48 48"><path d="M24,2C15.5,2,8.6,8.9,8.6,17.4C8.6,29,24,46,24,46s15.4-17,15.4-28.6C39.4,8.9,32.5,2,24,2z M24,42.9
	C20.2,38.4,10.6,26,10.6,17.4C10.6,10,16.6,4,24,4s13.4,6,13.4,13.4C37.4,26,27.8,38.4,24,42.9z M24,11.4c-3.3,0-6,2.7-6,6
	c0,3.3,2.7,6,6,6s6-2.7,6-6C30,14.1,27.3,11.4,24,11.4z M24,21.4c-2.2,0-4-1.8-4-4c0-2.2,1.8-4,4-4s4,1.8,4,4
	C28,19.6,26.2,21.4,24,21.4z"></path></symbol><symbol id="search" viewBox="0 0 24 24"><path d="M15.5,14h-0.8l-0.3-0.3c1-1.1,1.6-2.6,1.6-4.2C16,5.9,13.1,3,9.5,3S3,5.9,3,9.5S5.9,16,9.5,16c1.6,0,3.1-0.6,4.2-1.6
	l0.3,0.3v0.8l5,5l1.5-1.5L15.5,14z M9.5,14C7,14,5,12,5,9.5S7,5,9.5,5S14,7,14,9.5S12,14,9.5,14z"></path></symbol><symbol id="square" viewBox="0 0 88 88"><path d="M71.4,82.4L11.6,54.7c-4.2-2-4.7-7.8-0.9-10.4L67,6.1c3.9-2.6,9.1,0,9.4,4.6l3.6,65.8C80.1,81.1,75.5,84.3,71.4,82.4z"></path></symbol><symbol id="shut-eye" viewBox="0 0 24 24"><path d="M12,6c3.8,0,7.2,2.1,8.8,5.5c-0.6,1.2-1.4,2.3-2.4,3.1l1.4,1.4c1.4-1.2,2.5-2.8,3.2-4.5C21.3,7.1,17,4,12,4
	c-1.3,0-2.5,0.2-3.6,0.6L10,6.2C10.7,6.1,11.3,6,12,6z M10.9,7.1L13,9.2c0.6,0.2,1,0.7,1.3,1.3l2.1,2.1c0.1-0.3,0.1-0.7,0.1-1.1
	C16.5,9,14.5,7,12,7C11.6,7,11.3,7.1,10.9,7.1z M2,3.9l2.7,2.7c-1.6,1.3-2.9,3-3.7,4.9C2.7,15.9,7,19,12,19c1.5,0,3-0.3,4.3-0.8
	l3.4,3.4l1.4-1.4L3.4,2.5L2,3.9z M9.5,11.4l2.6,2.6c0,0-0.1,0-0.1,0c-1.4,0-2.5-1.1-2.5-2.5C9.5,11.4,9.5,11.4,9.5,11.4z M6.1,8
	l1.8,1.7c-0.2,0.6-0.4,1.1-0.4,1.8c0,2.5,2,4.5,4.5,4.5c0.6,0,1.2-0.1,1.8-0.4l1,1C13.9,16.9,12.9,17,12,17c-3.8,0-7.2-2.1-8.8-5.5
	C3.9,10.1,4.9,8.9,6.1,8z"></path></symbol><symbol id="subscriptions" viewBox="0 0 18 20"><path d="M19,3H14.82A3,3,0,0,0,9.18,3H5A2,2,0,0,0,3,5V19a2,2,0,0,0,2,2H19a2,2,0,0,0,2-2V5A2,2,0,0,0,19,3ZM12,3a1,1,0,1,1-1,1A1,1,0,0,1,12,3Zm2,14H7V15h7Zm3-4H7V11H17Zm0-4H7V7H17Z" transform="translate(-3 -1)"></path></symbol><symbol id="triangle" viewBox="0 0 88 88"><path d="M45.5,82.9L16.4,71.4C6.1,67.4,1.1,55.8,5.1,45.5l11.4-29.1c4-10.3,15.7-15.3,25.9-11.3l29.1,11.4
	c10.3,4,15.3,15.7,11.3,25.9L71.4,71.6C67.4,81.9,55.8,86.9,45.5,82.9z"></path></symbol></svg>