<?xml version="1.0" encoding="UTF-8" standalone="no"?><svg xmlns="http://www.w3.org/2000/svg" xmlns:xlink="http://www.w3.org/1999/xlink"><symbol id="clients" version="1.1" xmlns:xlink="http://www.w3.org/1999/xlink" x="0px" y="0px" viewBox="0 0 24 24" style="enable-background:new 0 0 24 24;" xml:space="preserve"><path d="M16,11c1.7,0,3-1.3,3-3s-1.3-3-3-3s-3,1.3-3,3S14.3,11,16,11z M8,11c1.7,0,3-1.3,3-3S9.7,5,8,5S5,6.3,5,8S6.3,11,8,11z
	 M8,13c-2.3,0-7,1.2-7,3.5V19h14v-2.5C15,14.2,10.3,13,8,13z M16,13c-0.3,0-0.6,0-1,0.1c1.2,0.8,2,2,2,3.4V19h6v-2.5
	C23,14.2,18.3,13,16,13z"></path></symbol><symbol id="filter" data-name="Layer 1" viewBox="0 0 18 18"><title>filter</title><path d="M3,17v2H9V17ZM3,5V7H13V5ZM13,21V19h8V17H13V15H11v6ZM7,9v2H3v2H7v2H9V9Zm14,4V11H11v2ZM15,9h2V7h4V5H17V3H15Z" transform="translate(-3 -3)"></path></symbol><symbol id="subscriptions" data-name="Layer 1" viewBox="0 0 18 20"><title>subscriptions</title><path d="M19,3H14.82A3,3,0,0,0,9.18,3H5A2,2,0,0,0,3,5V19a2,2,0,0,0,2,2H19a2,2,0,0,0,2-2V5A2,2,0,0,0,19,3ZM12,3a1,1,0,1,1-1,1A1,1,0,0,1,12,3Zm2,14H7V15h7Zm3-4H7V11H17Zm0-4H7V7H17Z" transform="translate(-3 -1)"></path></symbol><symbol id="calendar" version="1.1" xmlns:xlink="http://www.w3.org/1999/xlink" x="0px" y="0px" viewBox="0 0 24 24" style="enable-background:new 0 0 24 24;" xml:space="preserve"><path d="M9,11H7v2h2V11z M13,11h-2v2h2V11z M17,11h-2v2h2V11z M19,4h-1V2h-2v2H8V2H6v2H5C3.9,4,3,4.9,3,6l0,14c0,1.1,0.9,2,2,2h14
	c1.1,0,2-0.9,2-2V6C21,4.9,20.1,4,19,4z M19,20H5V9h14V20z"></path></symbol><symbol id="search" version="1.1" xmlns:xlink="http://www.w3.org/1999/xlink" x="0px" y="0px" viewBox="0 0 24 24" style="enable-background:new 0 0 24 24;" xml:space="preserve"><path d="M15.5,14h-0.8l-0.3-0.3c1-1.1,1.6-2.6,1.6-4.2C16,5.9,13.1,3,9.5,3S3,5.9,3,9.5S5.9,16,9.5,16c1.6,0,3.1-0.6,4.2-1.6
	l0.3,0.3v0.8l5,5l1.5-1.5L15.5,14z M9.5,14C7,14,5,12,5,9.5S7,5,9.5,5S14,7,14,9.5S12,14,9.5,14z"></path></symbol></svg>