<?xml version="1.0" encoding="UTF-8" standalone="no"?><svg xmlns="http://www.w3.org/2000/svg" xmlns:xlink="http://www.w3.org/1999/xlink"><symbol id="subscriptions" data-name="Layer 1" viewBox="0 0 18 20"><title>subscriptions</title><path d="M19,3H14.82A3,3,0,0,0,9.18,3H5A2,2,0,0,0,3,5V19a2,2,0,0,0,2,2H19a2,2,0,0,0,2-2V5A2,2,0,0,0,19,3ZM12,3a1,1,0,1,1-1,1A1,1,0,0,1,12,3Zm2,14H7V15h7Zm3-4H7V11H17Zm0-4H7V7H17Z" transform="translate(-3 -1)"></path></symbol><symbol id="clients" version="1.1" xmlns:xlink="http://www.w3.org/1999/xlink" x="0px" y="0px" viewBox="0 0 24 24" style="enable-background:new 0 0 24 24;" xml:space="preserve"><path d="M16,11c1.7,0,3-1.3,3-3s-1.3-3-3-3s-3,1.3-3,3S14.3,11,16,11z M8,11c1.7,0,3-1.3,3-3S9.7,5,8,5S5,6.3,5,8S6.3,11,8,11z
	 M8,13c-2.3,0-7,1.2-7,3.5V19h14v-2.5C15,14.2,10.3,13,8,13z M16,13c-0.3,0-0.6,0-1,0.1c1.2,0.8,2,2,2,3.4V19h6v-2.5
	C23,14.2,18.3,13,16,13z"></path></symbol></svg>