<?xml version="1.0" encoding="utf-8"?>
<!-- Generator: Adobe Illustrator 21.0.0, SVG Export Plug-In . SVG Version: 6.00 Build 0)  -->
<svg version="1.1" id="Layer_1" xmlns="http://www.w3.org/2000/svg" xmlns:xlink="http://www.w3.org/1999/xlink" x="0px" y="0px"
	 viewBox="0 0 217.3 46.2" style="enable-background:new 0 0 217.3 46.2;" xml:space="preserve">
<path d="M155.8,29.5c2.4,3.8,3.6,8.2,3.6,13.1c0,1.3-0.1,2.5-0.2,3.7h-20.7c0.3-1.1,0.5-2.3,0.5-3.7c0-3-0.7-5.4-2.2-7.1
	c-1.5-1.7-3.4-2.5-5.7-2.5s-4.2,0.8-5.7,2.5c-1.5,1.7-2.2,4-2.2,7.1c0,1.4,0.2,2.6,0.5,3.7h-20.7c-0.2-1.2-0.2-2.4-0.2-3.7
	c0-4.9,1.2-9.3,3.7-13.1c2.4-3.8,5.8-6.8,10.1-9c4.3-2.1,9.2-3.2,14.6-3.2c5.5,0,10.4,1.1,14.7,3.2C150,22.6,153.3,25.6,155.8,29.5z
	 M199.6,0.7v20.7c-2.9-2.8-7-4.2-12.4-4.2c-4.3,0-8.2,1-11.8,3.1c-3.6,2.1-6.5,5-8.6,8.8c-2.1,3.8-3.2,8.3-3.2,13.4
	c0,1.3,0.1,2.5,0.2,3.7h20.7c-0.3-1.1-0.5-2.3-0.5-3.7c0-3,0.7-5.4,2.2-7.1c1.5-1.7,3.4-2.5,5.7-2.5s4.2,0.8,5.7,2.5
	c1.5,1.7,2.2,4,2.2,7.1c0,1.4-0.2,2.6-0.5,3.7h17.8V0.7H199.6z M25.8,6.1C20.9,4.1,15.4,3.1,9.3,3.1C6,3.1,2.9,3.4,0,4v19.7
	c2.6-2.4,6.1-3.6,10.4-3.6c5.4,0,10.1,2.3,14,6.9l13.5-11.9C34.7,11.2,30.6,8.2,25.8,6.1z M85.1,20.5c-4.3-2.1-9.2-3.2-14.7-3.2
	c-5.4,0-10.3,1.1-14.6,3.2c-4.3,2.1-7.7,5.1-10.1,9c-2.4,3.8-3.7,8.2-3.7,13.1c0,1.3,0.1,2.5,0.2,3.7h20.7c-0.3-1.1-0.5-2.3-0.5-3.7
	c0-3,0.7-5.4,2.2-7.1c1.5-1.7,3.4-2.5,5.7-2.5s4.2,0.8,5.7,2.5c1.5,1.7,2.2,4,2.2,7.1c0,1.4-0.2,2.6-0.5,3.7h20.7
	c0.2-1.2,0.2-2.4,0.2-3.7c0-4.9-1.2-9.3-3.6-13.1C92.7,25.6,89.4,22.6,85.1,20.5z M17.8,46.2h18.3V34.1H17.8V46.2z"/>
</svg>
