<svg xmlns="http://www.w3.org/2000/svg" viewBox="0 0 381.4 162">
<path d="M17,42.4c-5.3,5.5-7.9,13.3-7.9,23.3s2.4,17.5,7.2,22.5s11,7.5,18.7,7.5c7.1,0,13.1-1.7,18.1-5.2V61.3h35.7v64.2H62V118
	c-8.1,6.9-19,10.3-32.7,10.3c-10.7,0-20.5-2.1-29.3-6.3V9.6c0.3-0.1,0.6-0.3,0.9-0.5c10.5-5.5,22.4-8.2,35.7-8.2
	c11.9,0,22.6,2,32.1,6S86,16.8,92.3,24.3L66,47.4C58.4,38.5,49.3,34,38.7,34C29.5,34,22.3,36.8,17,42.4z M169,68.2
	c0,6.6-1.3,11.5-3.8,14.5c-2.6,3.1-5.7,4.6-9.6,4.6c-4.1,0-7.1-1.4-9.2-4.2c-2.1-2.8-3.1-7.4-3.1-13.9V30.4H104V76
	c0,14.9,3.7,26,11,33.3c7.3,7.4,17,11.1,29.1,11.1c9.9,0,18.2-3,25.1-9.1v0.7c-0.2,6.5-1.9,11.4-5.5,14.8c-3.5,3.4-9.2,5-17,5
	c-5.1,0-10.5-0.9-16.1-2.6c-5.6-1.7-10.3-4-14-6.8l-13.2,26.8c5.8,3.8,12.8,6.8,21,8.8c8.2,2,17,3,26.4,3c18.3,0,32.5-4.6,42.6-13.7
	c10-9.1,15.1-22.7,15.1-40.8V30.4H169V68.2z M378.5,39.2c-6.9-7.1-16.1-10.6-27.6-10.6c-6.5,0-12.5,1.2-17.9,3.7
	c-5.5,2.5-10.1,6.1-13.9,10.7c-3.2-4.9-7.4-8.5-12.5-10.9c-5.1-2.4-10.9-3.6-17.2-3.6c-10.9,0-19.9,3.5-27,10.6v-8.7H225v95h39.3
	V79.1c0-6,1.1-10.4,3.4-13.2c2.3-2.8,5.2-4.2,9-4.2c7.1,0,10.6,5.5,10.6,16.4v47.5h39.3V79.1c0-6,1.1-10.4,3.4-13.2
	c2.3-2.8,5.2-4.2,9-4.2c7.1,0,10.6,5.5,10.6,16.4v47.5h31.8v-83C380.5,41.4,379.6,40.2,378.5,39.2z"/>
</svg>
