<?xml version="1.0" encoding="utf-8"?>
<!-- Generator: Adobe Illustrator 21.0.0, SVG Export Plug-In . SVG Version: 6.00 Build 0)  -->
<svg version="1.1" id="Layer_1" xmlns="http://www.w3.org/2000/svg" xmlns:xlink="http://www.w3.org/1999/xlink" x="0px" y="0px"
	 viewBox="0 0 490 490" style="enable-background:new 0 0 490 490;" xml:space="preserve">
<path d="M490,245c0,8.8-7.2,16-16,16H203.7l57.9,57.9c6.2,6.2,6.2,16.4,0,22.6c-3.1,3.1-7.2,4.7-11.3,4.7c-4.1,0-8.2-1.6-11.3-4.7
	l-85.1-85.1c-1.2-1.2-2.2-2.5-3-4c0,0,0,0,0,0c-0.2-0.4-0.4-0.9-0.6-1.4c0,0,0,0,0,0c-0.8-1.9-1.2-3.9-1.2-6c0-1,0.1-2,0.3-3
	c0,0,0-0.1,0-0.1c0.1-0.4,0.2-0.8,0.3-1.2c0-0.1,0.1-0.3,0.1-0.4c0.1-0.3,0.2-0.6,0.3-0.9c0.1-0.2,0.1-0.4,0.2-0.6
	c0.1-0.2,0.2-0.5,0.3-0.7c0.1-0.2,0.2-0.5,0.3-0.7c0.1-0.2,0.2-0.3,0.3-0.5c0.2-0.3,0.3-0.6,0.5-0.8c0.1-0.1,0.2-0.2,0.2-0.3
	c0.5-0.7,1.1-1.4,1.8-2.1l85.2-85.2c6.2-6.2,16.4-6.2,22.6,0c6.2,6.2,6.2,16.4,0,22.6L203.7,229H474C482.8,229,490,236.2,490,245z
	 M443.5,310c-8.2-3.2-17.5,0.8-20.7,9C392,397,318.1,447.4,234.3,447.4C122.8,447.4,32,356.6,32,245S122.8,42.6,234.3,42.6
	C318.1,42.6,392,93,422.7,171c3.3,8.2,12.5,12.2,20.7,9c8.2-3.3,12.2-12.5,9-20.7C416.9,69,331.3,10.7,234.3,10.7
	C105.1,10.7,0,115.8,0,245s105.1,234.3,234.3,234.3c97,0,182.6-58.3,218.1-148.6C455.7,322.5,451.7,313.3,443.5,310z"/>
</svg>
