<?xml version="1.0" encoding="utf-8"?>
<!-- Generator: Adobe Illustrator 21.0.0, SVG Export Plug-In . SVG Version: 6.00 Build 0)  -->
<svg version="1.1" id="Layer_1" xmlns="http://www.w3.org/2000/svg" xmlns:xlink="http://www.w3.org/1999/xlink" x="0px" y="0px"
	 viewBox="0 0 926 172.3" style="enable-background:new 0 0 926 172.3;" xml:space="preserve">
	<path fill="#FF9100" d="M54.6,49.9c-5.3,5.6-7.9,13.3-7.9,23.3c0,10,2.4,17.5,7.2,22.5c4.8,5,11.1,7.5,18.7,7.5
		c7.1,0,13.1-1.7,18.1-5.2V68.7h35.7V133H99.6v-7.5c-8.1,6.8-19,10.3-32.7,10.3c-11.5,0-21.9-2.4-31.2-7.3
		c-9.3-4.9-16.7-12-22.2-21.3C8,97.8,5.2,86.6,5.2,73.6c0-12.8,2.9-24.1,8.8-34c5.9-9.9,14-17.6,24.5-23.1
		c10.4-5.5,22.3-8.2,35.7-8.2c11.9,0,22.7,2,32.1,6c9.5,4,17.3,9.8,23.6,17.5L103.6,55c-7.7-8.9-16.8-13.4-27.3-13.4
		C67.1,41.6,59.9,44.4,54.6,49.9z M241.3,59.8c4.7,7.5,7,16,7,25.5c0,9.5-2.4,18-7,25.5c-4.7,7.5-11.3,13.3-19.7,17.6
		c-8.4,4.2-18,6.4-28.6,6.4c-10.6,0-20-2.1-28.5-6.4c-8.4-4.2-15-10.1-19.8-17.6c-4.8-7.5-7.1-16-7.1-25.5c0-9.5,2.4-18,7.1-25.5
		c4.8-7.5,11.3-13.3,19.8-17.5C173,38.1,182.5,36,193,36c10.7,0,20.2,2.1,28.6,6.3C230.1,46.5,236.6,52.3,241.3,59.8z M208.5,85.3
		c0-5.9-1.5-10.5-4.4-13.8c-2.9-3.2-6.6-4.9-11.1-4.9s-8.2,1.6-11.1,4.9c-2.9,3.2-4.4,7.8-4.4,13.8s1.4,10.5,4.4,13.8
		c2.9,3.3,6.6,5,11.1,5s8.2-1.7,11.1-5C207.1,95.8,208.5,91.2,208.5,85.3z M359.4,59.8c4.7,7.5,7,16,7,25.5c0,9.5-2.3,18-7,25.5
		s-11.3,13.3-19.7,17.6c-8.4,4.2-18,6.4-28.6,6.4c-10.6,0-20-2.1-28.5-6.4c-8.4-4.2-15-10.1-19.8-17.6c-4.8-7.5-7.1-16-7.1-25.5
		c0-9.5,2.4-18,7.1-25.5c4.8-7.5,11.3-13.3,19.8-17.5c8.4-4.2,17.9-6.3,28.5-6.3c10.7,0,20.2,2.1,28.6,6.3
		C348.1,46.5,354.7,52.3,359.4,59.8z M326.5,85.3c0-5.9-1.5-10.5-4.4-13.8c-2.9-3.2-6.6-4.9-11.1-4.9s-8.2,1.6-11.1,4.9
		c-2.9,3.2-4.3,7.8-4.3,13.8s1.4,10.5,4.3,13.8c2.9,3.3,6.6,5,11.1,5s8.2-1.7,11.1-5C325.1,95.8,326.5,91.2,326.5,85.3z M484.1,3.8
		V133h-37.4v-7.8c-5.7,6.4-14.4,9.6-26.1,9.6c-8.4,0-16-2-23.1-6c-7-4-12.6-9.8-16.7-17.3c-4.1-7.5-6.2-16.2-6.2-26.1
		c0-9.9,2.1-18.5,6.2-26c4.1-7.5,9.7-13.2,16.7-17.2c7-4,14.7-6,23.1-6c10.6,0,18.6,2.7,24.2,8.2V3.8H484.1z M445.4,85.3
		c0-5.9-1.5-10.5-4.4-13.8c-2.9-3.2-6.6-4.9-11.1-4.9s-8.2,1.6-11.1,4.9c-2.9,3.2-4.4,7.8-4.4,13.8s1.4,10.5,4.4,13.8
		c2.9,3.3,6.6,5,11.1,5s8.2-1.7,11.1-5C444,95.8,445.4,91.2,445.4,85.3z"/>
	<path fill="#FFFFFF" d="M547.2,49.9c-5.3,5.6-7.9,13.3-7.9,23.3c0,10,2.4,17.5,7.2,22.5c4.8,5,11.1,7.5,18.7,7.5
		c7.1,0,13.1-1.7,18.1-5.2V68.7h35.7V133h-26.8v-7.5c-8.1,6.8-19,10.3-32.7,10.3c-11.5,0-21.9-2.4-31.2-7.3
		c-9.3-4.9-16.7-12-22.2-21.3c-5.5-9.3-8.2-20.5-8.2-33.5c0-12.8,2.9-24.1,8.8-34c5.9-9.9,14-17.6,24.5-23.1
		c10.4-5.5,22.3-8.2,35.7-8.2c11.9,0,22.7,2,32.1,6c9.5,4,17.3,9.8,23.6,17.5L596.1,55c-7.7-8.9-16.8-13.4-27.3-13.4
		C559.7,41.6,552.4,44.4,547.2,49.9z M700.1,75.5c0,6.6-1.3,11.5-3.8,14.5c-2.6,3.1-5.7,4.6-9.6,4.6c-4.1,0-7.1-1.4-9.2-4.2
		s-3.1-7.4-3.1-13.9V37.8H635v45.6c0,14.9,3.7,26,11,33.3c7.3,7.4,17,11.1,29.1,11.1c9.9,0,18.2-3,25.1-9.1v0.7
		c0,6.5-1.8,11.4-5.3,14.8c-3.5,3.4-9.2,5-17,5c-5.1,0-10.5-0.9-16.1-2.6c-5.6-1.7-10.3-4-14-6.8l-13.2,26.8
		c5.8,3.8,12.8,6.8,21,8.8c8.2,2,17,3,26.4,3c18.3,0,32.5-4.6,42.6-13.7c10-9.1,15.1-22.7,15.1-40.8V37.8h-39.3V75.5z M910.4,46.6
		c-6.9-7.1-16.1-10.6-27.6-10.6c-6.5,0-12.5,1.2-17.9,3.7c-5.5,2.5-10.1,6.1-13.9,10.7c-3.2-4.9-7.4-8.5-12.5-10.9
		c-5.1-2.4-10.9-3.6-17.2-3.6c-10.9,0-19.9,3.5-27,10.6v-8.9h-37.4V133h39.3V86.5c0-6,1.1-10.4,3.4-13.2s5.2-4.2,9-4.2
		c7.1,0,10.6,5.5,10.6,16.4V133h39.3V86.5c0-6,1.1-10.4,3.4-13.2s5.2-4.2,9-4.2c7.1,0,10.6,5.5,10.6,16.4V133h39.3V78.7
		C920.8,64.4,917.3,53.7,910.4,46.6z"/>
</svg>
