<?xml version="1.0" encoding="utf-8"?>
<!-- Generator: Adobe Illustrator 21.0.0, SVG Export Plug-In . SVG Version: 6.00 Build 0)  -->
<svg version="1.1" id="Layer_1" xmlns="http://www.w3.org/2000/svg" xmlns:xlink="http://www.w3.org/1999/xlink" x="0px" y="0px"
	 viewBox="0 0 48 48" style="enable-background:new 0 0 48 48;" xml:space="preserve">
<path d="M14.5,7c0.1,0,0.1,0.1,0.1,0.1c0,2.8,0.4,5.5,1.3,8.1c0,0.1,0,0.1,0,0.1l-2.8,2.8l-1,1l0.6,1.3C15.7,27,21,32.3,27.5,35.3
	l1.3,0.6l1-1l2.8-2.8c0,0,0.1-0.1,0.1-0.1l0,0c2.6,0.9,5.4,1.3,8.2,1.3c0.1,0,0.1,0.1,0.1,0.1v7.4c0,0.1-0.1,0.1-0.1,0.1
	C22.2,41,7,25.8,7,7.1C7,7.1,7.1,7,7.1,7L14.5,7 M14.5,5H7.1C6,5,5,5.9,5,7.1C5,26.9,21.1,43,40.9,43c1.2,0,2.1-1,2.1-2.1v-7.4
	c0-1.2-1-2.1-2.1-2.1c-2.6,0-5.2-0.4-7.5-1.2c-0.2-0.1-0.4-0.1-0.7-0.1c-0.5,0-1.1,0.2-1.5,0.6l-2.8,2.8c-6.1-2.9-11-7.8-13.9-13.9
	l2.8-2.8c0.6-0.6,0.8-1.4,0.5-2.2c-0.8-2.4-1.2-4.9-1.2-7.5C16.6,5.9,15.7,5,14.5,5L14.5,5z"/>
</svg>
